# xmcd
#
# Track frame offsets: 
#        150
#        16032
#        23959
#        46991
#        63084
#        73944
#        93111
#        110893
#        130145
#        150430
#        164885
#        182833
#
# Disc length: 2672 seconds
#
# Revision: 0
# Processed by: cddbd v1.5.2PL0 Copyright (c) Steve Scherf et al.
# Submitted via: ExactAudioCopy v1.0b4
#
DISCID=9d0a6e0c
DTITLE=John Mayall's Bluesbreakers - Crusade  (LP)
DYEAR=1967
DGENRE=Blues
TTITLE0=Oh, Pretty Woman
TTITLE1=Stand Back Baby
TTITLE2=My Time After Awhile
TTITLE3=Snowy Wood
TTITLE4=Man Of Stone
TTITLE5=Tears In My Eyes
TTITLE6=Driving Sideways
TTITLE7=The Death Of J.B. Lenoir
TTITLE8=I Can't Quit You Baby
TTITLE9=Streamline
TTITLE10=Me And My Woman
TTITLE11=Me And My Woman
EXTD=
EXTT0=
EXTT1=
EXTT2=
EXTT3=
EXTT4=
EXTT5=
EXTT6=
EXTT7=
EXTT8=
EXTT9=
EXTT10=
EXTT11=
PLAYORDER=
